HIERARCHY
ROOT Hips
{
	OFFSET -0.001795 -0.223333 0.028219
	CHANNELS 6 Xposition Yposition Zposition Zrotation Yrotation Xrotation 
	JOINT LeftUpLeg
	{
		OFFSET 0.069520 -0.091406 -0.006815
		CHANNELS 3 Zrotation Yrotation Xrotation
		JOINT LeftLeg
		{
			OFFSET 0.034277 -0.375199 -0.004496
			CHANNELS 3 Zrotation Yrotation Xrotation
			JOINT LeftFoot
			{
				OFFSET -0.013596 -0.397961 -0.043693
				CHANNELS 3 Zrotation Yrotation Xrotation
				JOINT LeftToe
				{
					OFFSET 0.026358 -0.055791 0.119288
					CHANNELS 3 Zrotation Yrotation Xrotation
					End Site
					{
						OFFSET 0.000000 0.000000 0.000000
					}
				}
			}
		}
	}
	JOINT RightUpLeg
	{
		OFFSET -0.067670 -0.090522 -0.004320
		CHANNELS 3 Zrotation Yrotation Xrotation
		JOINT RightLeg
		{
			OFFSET -0.038290 -0.382569 -0.008850
			CHANNELS 3 Zrotation Yrotation Xrotation
			JOINT RightFoot
			{
				OFFSET 0.015774 -0.398415 -0.042312
				CHANNELS 3 Zrotation Yrotation Xrotation
				JOINT RightToe
				{
					OFFSET -0.025372 -0.048144 0.123348
					CHANNELS 3 Zrotation Yrotation Xrotation
					End Site
					{
						OFFSET 0.000000 0.000000 0.000000
					}
				}
			}
		}
	}
	JOINT Spine
	{
		OFFSET -0.002533 0.108963 -0.026696
		CHANNELS 3 Zrotation Yrotation Xrotation
		JOINT Spine1
		{
			OFFSET 0.005487 0.135180 0.001092
			CHANNELS 3 Zrotation Yrotation Xrotation
			JOINT Spine2
			{
				OFFSET 0.001457 0.052922 0.025425
				CHANNELS 3 Zrotation Yrotation Xrotation
				JOINT Neck
				{
					OFFSET -0.002778 0.213870 -0.042857
					CHANNELS 3 Zrotation Yrotation Xrotation
					JOINT Head
					{
						OFFSET 0.005152 0.064970 0.051349
						CHANNELS 3 Zrotation Yrotation Xrotation
						End Site
						{
							OFFSET 0.000000 0.000000 0.000000
						}
					}
				}
				JOINT LeftShoulder
				{
					OFFSET 0.078845 0.121749 -0.034090
					CHANNELS 3 Zrotation Yrotation Xrotation
					JOINT LeftArm
					{
						OFFSET 0.090977 0.030469 -0.008868
						CHANNELS 3 Zrotation Yrotation Xrotation
						JOINT LeftForeArm
						{
							OFFSET 0.259612 -0.012772 -0.027456
							CHANNELS 3 Zrotation Yrotation Xrotation
							JOINT LeftHand
							{
								OFFSET 0.249234 0.008986 -0.001171
								CHANNELS 3 Zrotation Yrotation Xrotation
								End Site
								{
									OFFSET 0.000000 0.000000 0.000000
								}
							}
						}
					}
				}
				JOINT RightShoulder
				{
					OFFSET -0.081759 0.118833 -0.038615
					CHANNELS 3 Zrotation Yrotation Xrotation
					JOINT RightArm
					{
						OFFSET -0.096012 0.032551 -0.009143
						CHANNELS 3 Zrotation Yrotation Xrotation
						JOINT RightForeArm
						{
							OFFSET -0.253742 -0.013329 -0.021401
							CHANNELS 3 Zrotation Yrotation Xrotation
							JOINT RightHand
							{
								OFFSET -0.255298 0.007772 -0.005559
								CHANNELS 3 Zrotation Yrotation Xrotation
								End Site
								{
									OFFSET 0.000000 0.000000 0.000000
								}
							}
						}
					}
				}
			}
		}
	}
}
MOTION
Frames: 16
Frame Time: 0.050000
0.000000 0.944932 0.000000 -1.993031 0.282391 -0.557760 -0.301373 0.070403 0.717997 1.236066 -0.267413 2.910213 1.825341 5.763626 5.397253 0.000000 0.000000 0.000000 4.273535 0.126222 -1.570664 -0.197065 0.270774 6.051694 0.801351 -1.227246 6.548668 0.000000 0.000000 0.000000 4.293488 -0.105072 0.985006 -1.349426 0.605489 2.966914 -4.311443 3.663813 2.303965 10.107077 -5.936150 -9.266378 0.000000 0.000000 0.000000 -28.171442 -9.313332 1.053109 -46.450177 -1.523721 -4.138556 -8.978353 -22.487381 2.409261 0.000000 0.000000 0.000000 27.285135 1.615651 0.076232 53.498979 5.327841 -3.149246 9.541720 26.192025 3.167015 0.000000 0.000000 0.000000 
-0.000035 0.944419 0.000241 -2.390159 0.450461 -0.167589 0.541335 0.063775 0.825921 0.566686 -0.139142 1.961375 1.726721 5.523780 5.195415 0.000000 0.000000 0.000000 4.475181 0.197936 -2.115354 0.257023 0.204906 6.284427 0.737219 -1.364200 6.582831 0.000000 0.000000 0.000000 5.026296 -0.018386 -0.252952 -0.820085 0.297421 4.493487 -5.517215 3.690117 1.776849 11.054235 -6.411537 -9.846171 0.000000 0.000000 0.000000 -27.997157 -9.416084 0.940304 -46.495585 -1.879306 -3.914976 -8.967394 -22.963364 2.435282 0.000000 0.000000 0.000000 26.868130 1.011767 -0.173636 54.968095 4.627492 -3.475635 9.596119 26.866539 3.299963 0.000000 0.000000 0.000000 
-0.000080 0.944396 -0.000138 -2.160433 -0.435169 0.209885 0.211359 0.012631 0.169969 0.527627 -0.155309 2.514959 2.146938 6.309257 5.356998 0.000000 0.000000 0.000000 4.610132 0.232973 -2.442086 -0.567136 0.334152 6.059145 1.041918 -0.704121 6.410164 0.000000 0.000000 0.000000 5.568111 -0.015562 -0.371939 -1.290806 0.582904 2.944158 -5.253741 3.870727 2.904187 9.904902 -5.838440 -9.157727 0.000000 0.000000 0.000000 -28.143557 -9.459900 1.182306 -46.350672 -1.597243 -4.158353 -9.101821 -22.207092 2.412838 0.000000 0.000000 0.000000 27.391235 1.301974 -0.104896 54.022031 3.446341 -4.045945 10.006566 27.595520 3.485918 0.000000 0.000000 0.000000 
-0.000194 0.945168 -0.000822 -2.329414 -0.588977 0.238982 0.317926 0.001929 0.064414 0.656814 -0.175280 2.587565 2.187404 6.447242 5.593243 0.000000 0.000000 0.000000 5.105530 0.267567 -2.697281 -1.122270 0.438702 6.357970 1.126289 -0.668643 6.702547 0.000000 0.000000 0.000000 5.708480 0.000313 -0.556324 -1.255151 0.556066 3.787254 -5.260720 3.540868 2.505002 9.855426 -5.739933 -9.462142 0.000000 0.000000 0.000000 -28.017311 -9.343366 1.244117 -46.952568 -1.621907 -4.222446 -9.250103 -22.926599 2.528475 0.000000 0.000000 0.000000 27.154754 1.252825 -0.283324 54.004085 3.529689 -3.924394 10.791650 27.366970 3.606891 0.000000 0.000000 0.000000 
-0.000283 0.946128 -0.001918 -2.197243 -1.214469 0.295267 0.288983 -0.047196 -0.494534 0.342501 -0.163261 3.436370 2.427512 6.970966 6.006427 0.000000 0.000000 0.000000 5.015154 0.265943 -2.723858 -1.319233 0.460376 6.120105 1.456841 -0.150581 6.993961 0.000000 0.000000 0.000000 5.867273 -0.015575 -0.382269 -1.124793 0.495951 3.975377 -5.464271 3.704845 2.180312 10.002126 -5.995346 -8.754329 0.000000 0.000000 0.000000 -28.086395 -9.712524 1.502342 -46.752119 -1.377977 -4.275346 -9.842708 -23.206766 2.683110 0.000000 0.000000 0.000000 27.262408 1.036073 -0.480962 53.497951 3.054851 -4.061133 11.288359 27.935657 3.798649 0.000000 0.000000 0.000000 
-0.000254 0.946767 -0.002756 -2.319710 -1.578318 0.524204 0.487164 -0.069668 -0.735899 0.165970 -0.135382 3.385468 2.552049 7.247603 6.273013 0.000000 0.000000 0.000000 5.134639 0.307851 -3.050927 -1.356543 0.467965 6.131163 1.668896 0.128256 7.286771 0.000000 0.000000 0.000000 6.128849 -0.030153 -0.279029 -1.071012 0.479670 3.365986 -5.335831 3.488794 2.783450 9.596428 -5.635088 -9.318837 0.000000 0.000000 0.000000 -27.978838 -9.714173 1.729913 -47.122788 -1.269480 -4.471186 -10.340611 -24.325246 2.946596 0.000000 0.000000 0.000000 27.241845 1.335733 -0.432239 53.345101 2.987880 -4.095253 11.130716 27.545449 3.679014 0.000000 0.000000 0.000000 
-0.000076 0.947214 -0.003218 -2.249461 -1.880888 0.426576 0.464782 -0.066978 -0.709079 -0.001974 -0.114906 3.517805 2.649049 7.461619 6.488359 0.000000 0.000000 0.000000 5.106690 0.285729 -2.906920 -1.516010 0.486064 5.986872 1.829044 0.378541 7.411602 0.000000 0.000000 0.000000 6.148745 -0.060111 0.064471 -1.085819 0.491050 3.446914 -5.188554 3.080198 2.714129 9.563350 -5.582347 -9.616939 0.000000 0.000000 0.000000 -28.196104 -9.428555 1.769339 -47.121057 -1.033125 -4.621442 -10.595250 -25.037709 3.116310 0.000000 0.000000 0.000000 26.856560 1.567807 -0.489264 53.220888 2.576687 -4.192116 11.166510 27.445847 3.632168 0.000000 0.000000 0.000000 
0.000287 0.947492 -0.003184 -2.262011 -1.998000 0.516600 0.531438 -0.074011 -0.786231 -0.156367 -0.091646 3.497667 2.677133 7.536105 6.608195 0.000000 0.000000 0.000000 4.972211 0.286714 -2.927051 -1.322277 0.447927 5.835987 1.925419 0.502625 7.551875 0.000000 0.000000 0.000000 6.274254 -0.061917 0.057123 -1.055468 0.477306 3.409702 -5.173528 2.845837 2.897991 9.406478 -5.423037 -9.985262 0.000000 0.000000 0.000000 -28.358671 -9.368113 1.855856 -47.123077 -1.040617 -4.668517 -10.696117 -25.508168 3.215752 0.000000 0.000000 0.000000 26.734161 1.498605 -0.632955 52.974284 2.367695 -4.249383 11.031698 27.099559 3.532024 0.000000 0.000000 0.000000 
0.000850 0.947634 -0.002755 -2.286065 -2.024924 0.498110 0.382983 -0.052771 -0.551815 0.081959 -0.115306 3.173111 2.678648 7.550922 6.662117 0.000000 0.000000 0.000000 4.970494 0.280438 -2.883125 -1.346127 0.451876 5.838886 1.948864 0.524730 7.602194 0.000000 0.000000 0.000000 6.319631 -0.066076 0.101109 -1.002961 0.450737 3.387471 -5.115029 2.730240 3.000982 9.237909 -5.314044 -10.016828 0.000000 0.000000 0.000000 -28.602926 -9.376134 1.914481 -47.071682 -1.109752 -4.660155 -10.597681 -25.450382 3.195254 0.000000 0.000000 0.000000 26.852919 1.553086 -0.653777 52.559945 2.110937 -4.327536 10.912142 26.624301 3.424873 0.000000 0.000000 0.000000 
0.001548 0.947799 -0.002168 -2.217728 -2.058766 0.421783 0.260403 -0.032348 -0.331885 0.079450 -0.109064 2.995740 2.667025 7.548068 6.742192 0.000000 0.000000 0.000000 4.935941 0.261318 -2.745786 -1.508999 0.475172 5.802332 1.962989 0.547404 7.608610 0.000000 0.000000 0.000000 6.395184 -0.055856 0.009990 -0.980162 0.438533 3.551204 -5.144522 2.711504 3.121481 9.147903 -5.206738 -10.268693 0.000000 0.000000 0.000000 -28.675505 -9.334270 1.899040 -47.140957 -1.098455 -4.682900 -10.375453 -25.287910 3.126489 0.000000 0.000000 0.000000 26.757331 1.475946 -0.701525 52.601921 2.004489 -4.384653 10.617738 26.194400 3.298832 0.000000 0.000000 0.000000 
0.002414 0.947923 -0.001476 -2.236403 -2.034396 0.393329 0.162859 -0.026642 -0.276380 0.187893 -0.125285 3.025101 2.659731 7.537607 6.746094 0.000000 0.000000 0.000000 4.887448 0.272840 -2.821784 -1.482718 0.486254 6.070487 1.947257 0.507044 7.627830 0.000000 0.000000 0.000000 6.567529 -0.052304 -0.032899 -1.024701 0.461251 3.551746 -5.208147 2.731430 3.269133 9.039499 -5.131881 -10.286582 0.000000 0.000000 0.000000 -28.843070 -9.353548 1.893870 -47.240729 -0.994463 -4.739253 -10.049925 -24.812937 2.995530 0.000000 0.000000 0.000000 26.815339 1.312008 -0.788916 52.419603 1.716983 -4.511027 10.681890 25.872308 3.269514 0.000000 0.000000 0.000000 
0.003256 0.948014 -0.000819 -2.237514 -2.240503 0.275280 0.007568 -0.013413 -0.145256 0.323061 -0.147657 3.133460 2.761493 7.714978 6.770552 0.000000 0.000000 0.000000 4.871301 0.266847 -2.780492 -1.582294 0.515268 6.288836 2.024282 0.656167 7.614868 0.000000 0.000000 0.000000 6.663899 -0.058016 0.051636 -1.100121 0.503755 3.516045 -5.110112 2.973491 3.405716 8.839765 -4.909756 -10.707084 0.000000 0.000000 0.000000 -28.983893 -9.386928 1.868203 -47.271469 -0.661421 -4.865599 -9.491013 -24.414162 2.823483 0.000000 0.000000 0.000000 26.888460 1.147482 -0.851377 52.334837 1.580297 -4.589482 10.360785 25.818869 3.201059 0.000000 0.000000 0.000000 
0.004014 0.948010 -0.000161 -2.234256 -2.397716 0.251494 -0.077066 -0.006442 -0.077222 0.344122 -0.151298 3.160951 2.837329 7.843047 6.773782 0.000000 0.000000 0.000000 4.954544 0.290254 -2.949437 -1.841273 0.582086 6.702542 2.049038 0.725785 7.548705 0.000000 0.000000 0.000000 6.675902 -0.059045 0.072483 -1.189252 0.551776 3.633751 -5.081104 3.151133 3.428343 8.624694 -4.721091 -10.895003 0.000000 0.000000 0.000000 -29.030546 -9.212706 1.715473 -47.263324 -0.464534 -4.930717 -8.948433 -24.058204 2.663668 0.000000 0.000000 0.000000 27.085923 1.185652 -0.802984 52.306002 1.357939 -4.696941 10.169788 25.963119 3.185336 0.000000 0.000000 0.000000 
0.004555 0.948079 0.000469 -2.191234 -2.481013 0.163056 -0.169802 0.005930 0.046643 0.343470 -0.152223 3.193968 2.868495 7.901558 6.803198 0.000000 0.000000 0.000000 5.070318 0.285206 -2.910988 -2.203171 0.652122 6.871318 2.054429 0.751030 7.503462 0.000000 0.000000 0.000000 6.594780 -0.070125 0.211663 -1.147564 0.531056 3.708284 -5.102602 3.509134 3.404801 8.718094 -4.728926 -11.054059 0.000000 0.000000 0.000000 -29.146633 -9.222077 1.577868 -47.128866 0.070294 -5.071506 -8.555064 -23.847809 2.544409 0.000000 0.000000 0.000000 27.372990 0.930292 -0.863278 52.169786 1.341848 -4.729040 9.951383 26.187515 3.188035 0.000000 0.000000 0.000000 
0.004925 0.948228 0.000981 -2.222777 -2.404809 0.169291 -0.130204 0.019618 0.196242 0.309121 -0.139468 2.961772 2.811234 7.812161 6.840272 0.000000 0.000000 0.000000 5.160385 0.308250 -3.064819 -2.325300 0.693173 7.195151 2.008232 0.643152 7.536816 0.000000 0.000000 0.000000 6.619488 -0.070091 0.205206 -1.243416 0.579381 3.809800 -5.079193 3.601483 3.387428 8.633116 -4.609693 -11.316581 0.000000 0.000000 0.000000 -29.021633 -8.984716 1.375581 -46.975578 0.453740 -5.181010 -8.368499 -23.912501 2.506314 0.000000 0.000000 0.000000 27.351640 0.917500 -0.821601 52.585123 1.307109 -4.789345 9.471020 26.519582 3.138143 0.000000 0.000000 0.000000 
0.005180 0.948394 0.001257 -2.214167 -2.123836 0.152595 -0.120365 0.034261 0.353836 0.303941 -0.129843 2.692238 2.655007 7.556113 6.871483 0.000000 0.000000 0.000000 5.170905 0.329021 -3.190626 -2.336819 0.713707 7.495987 1.879749 0.377006 7.578837 0.000000 0.000000 0.000000 6.366001 -0.082320 0.344398 -1.149944 0.527710 3.543709 -5.016065 3.815015 3.542234 8.787805 -4.526126 -12.168199 0.000000 0.000000 0.000000 -28.970466 -9.026997 1.276692 -46.850176 0.932698 -5.317072 -8.472343 -24.056839 2.531343 0.000000 0.000000 0.000000 27.330408 0.843987 -0.736018 52.888345 1.446374 -4.803195 9.251748 26.880731 3.162751 0.000000 0.000000 0.000000 
